<svg xmlns="http://www.w3.org/2000/svg" viewBox="0 0 124.89 151.76">
  <path class="cls-1" d="M127,154.61H2.11V2.85H127ZM15.58,85.9c-3.73,3.33-7.74,5.42-9.41,8.69-4.1,8.09,1.9,16.59,11.78,17.23,3,.19,4.73.86,5.14,4,.44,3.34,2.56,4.23,5.69,4a73.87,73.87,0,0,1,10,0,7.21,7.21,0,0,1,7.07,6.54c.56,4.27-3.09,4.95-6.17,5.76a5.25,5.25,0,0,1-2.48.16c-13.09-3.18-19.37,3.14-22.45,15.19-1.48,5.84-1.73,6.37,4.28,6.37H92c.84,0,1.67,0,2.5,0,2.84-.21,3.89-1.52,2.69-4.32-2-4.74-3.73-9.67-6.17-14.19-.85-1.57-3.42-2.88-5.32-3.07-4.12-.4-8.33.26-12.47,0-3.63-.23-7.72-.59-7.94-5.66-.15-3.52,4-6.76,8.37-6.79,3,0,6-.17,9,.08,3.29.27,5-1,5.53-4.22a19.07,19.07,0,0,1,1.33-5.31c.63-1.27,2.13-3.1,3.11-3,3.75.31,5.54-1.22,6.39-4.69.3-1.21,1.36-2.25,2.17-3.3,4.64-6.08,11-8.76,18.4-9.91,1.69-.26,3.12-2.19,4.67-3.35-1.57-.59-3.13-1.65-4.71-1.7-6.33-.19-12.66,0-19-.09-1.27,0-3.49-.13-3.66-.69-1.38-4.47-5-3.05-7.86-3.15-5-.18-9.92,0-14.84,0,2.77-4.74,5.23-9.44,8.21-13.78a11.7,11.7,0,0,1,5.49-4c4.28-1.51,8.43-7.86,6.55-11.87-1.32-2.83-.54-4.63.82-6.8,1.5-2.4,2.86-4.89,4.26-7.34,4.21-7.38,2.54-13.41-4.88-17.75-2.74-1.6-5.44-3.25-8.16-4.86-6.33-3.74-12.56-2-16.26,4.51-2.34,4.11-4.8,8.15-7.72,13.08-4.09-3.47-7.33-6.42-10.81-9-1-.74-2.69-.53-4.07-.72-2.77-.39-5.95,0-8.25-1.25-9.64-5.19-19-10.88-28.91-16.62L5.21,12.46c1.66,1.06,3,2,4.4,2.79,8.07,4.68,16.29,9.13,24.15,14.13,2.36,1.5,3.72,4.57,5.61,6.86,1,1.18,1.94,2.65,3.25,3.24,3.92,1.78,8,3.19,12.58,5-2.83,4.93-5,8.8-7.27,12.67-4,7-2.4,12.9,4.66,17l8.81,5.1L61,80.69H14.78Z" transform="translate(-2.11 -2.85)"/>
  <path d="M15.58,85.9l-.8-5.21H61l.38-1.48-8.81-5.1c-7.06-4.11-8.68-10-4.66-17,2.24-3.87,4.44-7.74,7.27-12.67-4.57-1.76-8.66-3.17-12.58-5-1.31-.59-2.27-2.06-3.25-3.24-1.89-2.29-3.25-5.36-5.61-6.86-7.86-5-16.08-9.45-24.15-14.13-1.4-.81-2.74-1.73-4.4-2.79l5.21-8.55C20.3,9.65,29.69,15.34,39.33,20.53c2.3,1.25,5.48.86,8.25,1.25,1.38.19,3.08,0,4.07.72,3.48,2.61,6.72,5.56,10.81,9,2.92-4.93,5.38-9,7.72-13.08,3.7-6.49,9.93-8.25,16.26-4.51,2.72,1.61,5.42,3.26,8.16,4.86,7.42,4.34,9.09,10.37,4.88,17.75-1.4,2.45-2.76,4.94-4.26,7.34-1.36,2.17-2.14,4-.82,6.8,1.88,4-2.27,10.36-6.55,11.87a11.7,11.7,0,0,0-5.49,4c-3,4.34-5.44,9-8.21,13.78,4.92,0,9.88-.13,14.84,0,2.88.1,6.48-1.32,7.86,3.15.17.56,2.39.67,3.66.69,6.33.06,12.66-.1,19,.09,1.58.05,3.14,1.11,4.71,1.7-1.55,1.16-3,3.09-4.67,3.35-7.37,1.15-13.76,3.83-18.4,9.91-.81,1-1.87,2.09-2.17,3.3-.85,3.47-2.64,5-6.39,4.69-1-.08-2.48,1.75-3.11,3a19.07,19.07,0,0,0-1.33,5.31c-.53,3.2-2.24,4.49-5.53,4.22-3-.25-6-.1-9-.08-4.35,0-8.52,3.27-8.37,6.79.22,5.07,4.31,5.43,7.94,5.66,4.14.26,8.35-.4,12.47,0,1.9.19,4.47,1.5,5.32,3.07,2.44,4.52,4.13,9.45,6.17,14.19,1.2,2.8.15,4.11-2.69,4.32-.83.06-1.66,0-2.5,0H19c-6,0-5.76-.53-4.28-6.37,3.08-12,9.36-18.37,22.45-15.19a5.25,5.25,0,0,0,2.48-.16c3.08-.81,6.73-1.49,6.17-5.76a7.21,7.21,0,0,0-7.07-6.54,73.87,73.87,0,0,0-10,0c-3.13.19-5.25-.7-5.69-4-.41-3.09-2.17-3.76-5.14-4-9.88-.64-15.88-9.14-11.78-17.23C7.84,91.32,11.85,89.23,15.58,85.9Z" transform="translate(-2.11 -2.85)"/>
</svg>
